<svg width="47" height="39" viewBox="0 0 47 39" fill="none" xmlns="http://www.w3.org/2000/svg">
<g clip-path="url(#clip0_154_31)">
<path d="M5.18478 5.46608C5.0961 2.88245 7.08011 0.5 9.76186 0.5H37.2415C39.9233 0.5 41.9073 2.88245 41.8186 5.46608C41.7334 7.94791 41.844 11.1628 42.6415 13.7842C43.4415 16.4136 44.7905 18.0757 47 18.2892V20.7108C44.7905 20.9243 43.4415 22.5864 42.6415 25.2158C41.844 27.8372 41.7334 31.0521 41.8186 33.534C41.9073 36.1175 39.9233 38.5 37.2415 38.5H9.76186C7.08011 38.5 5.0961 36.1175 5.18487 33.534C5.26997 31.0521 5.15935 27.8372 4.36182 25.2158C3.5619 22.5864 2.20955 20.9243 0 20.7108V18.2892C2.20946 18.0757 3.5619 16.4136 4.36182 13.7842C5.15935 11.1628 5.26997 7.94791 5.18478 5.46608Z" fill="white"/>
<g filter="url(#filter0_d_154_31)">
<path d="M24.5193 29.6014C28.861 29.6014 31.4773 27.4445 31.4773 23.887C31.4773 21.1978 29.6105 19.251 26.8386 18.9428V18.8307C28.8751 18.4946 30.4732 16.5758 30.4732 14.4329C30.4732 11.3796 28.0973 9.39062 24.4769 9.39062H16.3308V29.6014H24.5193ZM19.4987 11.9538H23.7132C26.0043 11.9538 27.3053 12.9902 27.3053 14.867C27.3053 16.8699 25.7921 17.9904 23.0485 17.9904H19.4987V11.9538ZM19.4987 27.0384V20.3855H23.6848C26.683 20.3855 28.2387 21.5059 28.2387 23.6909C28.2387 25.8758 26.7255 27.0384 23.8687 27.0384H19.4987Z" fill="#FE0000"/>
<path d="M24.5193 29.6014C28.861 29.6014 31.4773 27.4445 31.4773 23.887C31.4773 21.1978 29.6105 19.251 26.8386 18.9428V18.8307C28.8751 18.4946 30.4732 16.5758 30.4732 14.4329C30.4732 11.3796 28.0973 9.39062 24.4769 9.39062H16.3308V29.6014H24.5193ZM19.4987 11.9538H23.7132C26.0043 11.9538 27.3053 12.9902 27.3053 14.867C27.3053 16.8699 25.7921 17.9904 23.0485 17.9904H19.4987V11.9538ZM19.4987 27.0384V20.3855H23.6848C26.683 20.3855 28.2387 21.5059 28.2387 23.6909C28.2387 25.8758 26.7255 27.0384 23.8687 27.0384H19.4987Z" stroke="#FE0000"/>
</g>
</g>
<defs>
<filter id="filter0_d_154_31" x="-0.169189" y="-3.10938" width="48.1465" height="53.2108" filterUnits="userSpaceOnUse" color-interpolation-filters="sRGB">
<feFlood flood-opacity="0" result="BackgroundImageFix"/>
<feColorMatrix in="SourceAlpha" type="matrix" values="0 0 0 0 0 0 0 0 0 0 0 0 0 0 0 0 0 0 127 0" result="hardAlpha"/>
<feOffset dy="4"/>
<feGaussianBlur stdDeviation="8"/>
<feColorMatrix type="matrix" values="0 0 0 0 0 0 0 0 0 0 0 0 0 0 0 0 0 0 0.15 0"/>
<feBlend mode="normal" in2="BackgroundImageFix" result="effect1_dropShadow_154_31"/>
<feBlend mode="normal" in="SourceGraphic" in2="effect1_dropShadow_154_31" result="shape"/>
</filter>
<clipPath id="clip0_154_31">
<rect width="47" height="38" fill="white" transform="translate(0 0.5)"/>
</clipPath>
</defs>
</svg>
