<svg width="18" height="25" viewBox="0 0 18 25" fill="none" xmlns="http://www.w3.org/2000/svg">
<g clip-path="url(#clip0_112_31)">
<path d="M0.65625 4.67773C0.65625 2.09473 2.66719 0 5.14688 0H12.8531C15.3328 0 17.3438 2.09473 17.3438 4.67773C17.3438 6.31348 16.5375 7.75391 15.3141 8.58887C16.5375 9.42383 17.3438 10.8643 17.3438 12.5C17.3438 15.083 15.3328 17.1777 12.8531 17.1777H12.7547C11.5922 17.1777 10.5328 16.7188 9.73594 15.9619V20.2734C9.73594 22.8906 7.67344 25 5.17031 25C2.69531 25 0.65625 22.9102 0.65625 20.3223C0.65625 18.6865 1.4625 17.2461 2.68125 16.4111C1.4625 15.5762 0.65625 14.1357 0.65625 12.5C0.65625 10.8643 1.4625 9.42383 2.68125 8.58887C1.4625 7.75391 0.65625 6.31348 0.65625 4.67773ZM8.26406 9.35547H5.14688C3.47813 9.35547 2.12813 10.7617 2.12813 12.5C2.12813 14.2285 3.46875 15.6348 5.12813 15.6445C5.13281 15.6445 5.14219 15.6445 5.14688 15.6445H8.26406V9.35547ZM9.73594 12.5C9.73594 14.2383 11.0859 15.6445 12.7547 15.6445H12.8531C14.5172 15.6445 15.8719 14.2383 15.8719 12.5C15.8719 10.7617 14.5172 9.35547 12.8531 9.35547H12.7547C11.0859 9.35547 9.73594 10.7617 9.73594 12.5ZM5.14688 17.1777C5.14219 17.1777 5.13281 17.1777 5.12813 17.1777C3.46875 17.1875 2.12813 18.5938 2.12813 20.3223C2.12813 22.0557 3.49688 23.4668 5.17031 23.4668C6.87188 23.4668 8.26406 22.0312 8.26406 20.2734V17.1777H5.14688ZM5.14688 1.5332C3.47813 1.5332 2.12813 2.93945 2.12813 4.67773C2.12813 6.41602 3.47813 7.82227 5.14688 7.82227H8.26406V1.5332H5.14688ZM9.73594 7.82227H12.8531C14.5172 7.82227 15.8719 6.41602 15.8719 4.67773C15.8719 2.93945 14.5172 1.5332 12.8531 1.5332H9.73594V7.82227Z" fill="#F7DF1E"/>
</g>
<defs>
<clipPath id="clip0_112_31">
<rect width="18" height="25" fill="white"/>
</clipPath>
</defs>
</svg>
