<svg width="25" height="26" viewBox="0 0 25 26" fill="none" xmlns="http://www.w3.org/2000/svg">
<path d="M8.36189 20.0511C8.36189 20.1521 8.24597 20.2328 8.0998 20.2328C7.93347 20.2479 7.81754 20.1672 7.81754 20.0511C7.81754 19.9502 7.93347 19.8695 8.07964 19.8695C8.23085 19.8544 8.36189 19.9351 8.36189 20.0511ZM6.79435 19.8241C6.75907 19.925 6.85988 20.0411 7.01109 20.0713C7.14214 20.1218 7.29335 20.0713 7.32359 19.9704C7.35383 19.8695 7.25806 19.7535 7.10685 19.708C6.97581 19.6727 6.82964 19.7232 6.79435 19.8241ZM9.02218 19.7383C8.87601 19.7736 8.7752 19.8695 8.79032 19.9856C8.80544 20.0865 8.93649 20.1521 9.0877 20.1167C9.23387 20.0814 9.33468 19.9856 9.31956 19.8846C9.30443 19.7888 9.16835 19.7232 9.02218 19.7383ZM12.3387 0.403687C5.34778 0.403687 0 5.71668 0 12.7149C0 18.3104 3.51815 23.0987 8.54335 24.7839C9.18851 24.8999 9.41532 24.5013 9.41532 24.1734C9.41532 23.8606 9.4002 22.135 9.4002 21.0754C9.4002 21.0754 5.87198 21.8322 5.13105 19.5718C5.13105 19.5718 4.55645 18.1036 3.72984 17.7251C3.72984 17.7251 2.5756 16.933 3.81048 16.9481C3.81048 16.9481 5.06552 17.049 5.75605 18.2499C6.85988 20.1975 8.70968 19.6374 9.43044 19.3044C9.54637 18.4971 9.87399 17.9371 10.2369 17.604C7.41935 17.2912 4.57661 16.8825 4.57661 12.0287C4.57661 10.6412 4.95968 9.94487 5.76613 9.05684C5.63508 8.72888 5.20665 7.37667 5.89718 5.6309C6.9506 5.30294 9.375 6.99321 9.375 6.99321C10.3831 6.71065 11.4667 6.56433 12.5403 6.56433C13.6139 6.56433 14.6976 6.71065 15.7056 6.99321C15.7056 6.99321 18.13 5.29789 19.1835 5.6309C19.874 7.38171 19.4456 8.72888 19.3145 9.05684C20.121 9.94991 20.6149 10.6462 20.6149 12.0287C20.6149 16.8977 17.6462 17.2862 14.8286 17.604C15.2923 18.0026 15.6855 18.7595 15.6855 19.9452C15.6855 21.6455 15.6704 23.7496 15.6704 24.1633C15.6704 24.4913 15.9022 24.8899 16.5423 24.7738C21.5827 23.0987 25 18.3104 25 12.7149C25 5.71668 19.3296 0.403687 12.3387 0.403687ZM4.89919 17.8059C4.83367 17.8563 4.84879 17.9724 4.93448 18.0682C5.01512 18.149 5.13105 18.1843 5.19657 18.1187C5.2621 18.0682 5.24698 17.9522 5.16129 17.8563C5.08065 17.7756 4.96472 17.7403 4.89919 17.8059ZM4.35484 17.3972C4.31956 17.4628 4.36996 17.5435 4.47077 17.594C4.55141 17.6444 4.65222 17.6293 4.6875 17.5586C4.72278 17.493 4.67238 17.4123 4.57157 17.3619C4.47077 17.3316 4.39012 17.3467 4.35484 17.3972ZM5.9879 19.1934C5.90726 19.259 5.9375 19.4104 6.05343 19.5062C6.16935 19.6223 6.31552 19.6374 6.38105 19.5567C6.44657 19.4911 6.41633 19.3397 6.31552 19.2439C6.20464 19.1278 6.05343 19.1127 5.9879 19.1934ZM5.41331 18.4517C5.33266 18.5022 5.33266 18.6333 5.41331 18.7494C5.49395 18.8654 5.63004 18.9159 5.69556 18.8654C5.77621 18.7998 5.77621 18.6687 5.69556 18.5526C5.625 18.4366 5.49395 18.3861 5.41331 18.4517Z" fill="#F7DF1E"/>
</svg>
