<svg width="35" height="38" viewBox="0 0 35 38" fill="none" xmlns="http://www.w3.org/2000/svg">
<g clip-path="url(#clip0_154_3)">
<path fill-rule="evenodd" clip-rule="evenodd" d="M34.5 0L31.4028 34.1963L17.4796 38L3.59405 34.2025L0.5 0H34.5Z" fill="white"/>
<path fill-rule="evenodd" clip-rule="evenodd" d="M17.4984 35.0931L28.7512 32.0192L31.3965 2.79553H17.4984V35.0931Z" fill="white"/>
<path fill-rule="evenodd" clip-rule="evenodd" d="M11.4798 11.1854H17.5016V6.99207H6.82617L6.92659 8.11772L7.97153 19.6773H17.4953V15.4808H11.8689L11.4798 11.1854ZM12.4369 21.774H8.16609L8.7623 28.3609L17.4827 30.7452L17.5016 30.739V26.3755L17.4827 26.3817L12.7413 25.12L12.4369 21.774Z" fill="#FE0000"/>
<path fill-rule="evenodd" clip-rule="evenodd" d="M17.4858 19.6772H22.7263L22.2336 25.1168L17.4858 26.3785V30.742L26.2126 28.3577L26.2753 27.6495L27.2763 16.6064L27.3799 15.4808H17.4858V19.6772ZM17.4858 11.1761V11.1853H27.7659L27.8506 10.2421L28.0451 8.11454L28.1456 6.98889H17.4858V11.1761Z" fill="#FE0000"/>
</g>
<defs>
<clipPath id="clip0_154_3">
<rect width="34" height="38" fill="white" transform="translate(0.5)"/>
</clipPath>
</defs>
</svg>
