<svg width="39" height="39" viewBox="0 0 39 39" fill="none" xmlns="http://www.w3.org/2000/svg">
<g clip-path="url(#clip0_154_27)">
<path fill-rule="evenodd" clip-rule="evenodd" d="M0.5 0.5H38.5V38.5H0.5V0.5Z" fill="white"/>
<path fill-rule="evenodd" clip-rule="evenodd" d="M10.4917 32.2564L13.3986 30.4968C13.9583 31.4926 14.4686 32.3337 15.6932 32.3337C16.8652 32.3337 17.6074 31.876 17.6074 30.0886V17.9445H21.1792V30.1381C21.1792 33.8366 19.0114 35.5189 15.8478 35.5189C12.9904 35.5189 11.3328 34.0407 10.4917 32.2564ZM23.1182 31.8729L26.0251 30.1906C26.792 31.44 27.7847 32.3584 29.5443 32.3584C31.0225 32.3584 31.9688 31.6193 31.9688 30.5988C31.9688 29.3742 31.0008 28.9413 29.368 28.2269L28.4743 27.8435C25.8983 26.7456 24.1882 25.3695 24.1882 22.4626C24.1882 19.7845 26.2292 17.7435 29.4175 17.7435C31.6873 17.7435 33.3202 18.5352 34.4922 20.601L31.7121 22.3853C31.0998 21.2875 30.438 20.8545 29.4175 20.8545C28.3722 20.8545 27.7074 21.5163 27.7074 22.3853C27.7074 23.4553 28.3691 23.8913 29.8999 24.5531L30.7936 24.9366C33.8304 26.2385 35.5374 27.5651 35.5374 30.5494C35.5374 33.7624 33.0109 35.522 29.6185 35.522C26.3065 35.522 24.1634 33.9387 23.1182 31.8729Z" fill="#FE0000"/>
</g>
<defs>
<clipPath id="clip0_154_27">
<rect width="38" height="38" fill="white" transform="translate(0.5 0.5)"/>
</clipPath>
</defs>
</svg>
