<svg width="55" height="50" viewBox="0 0 55 50" fill="none" xmlns="http://www.w3.org/2000/svg">
<g clip-path="url(#clip0_8_110)">
<path d="M0.460859 5.82155C3.3824 4.06155 6.29778 2.2877 9.23163 0.547699C9.23778 14.02 9.21624 27.4923 9.2424 40.9646C7.91317 41.7908 6.56086 42.5785 5.22855 43.3954C3.63778 44.3446 2.05932 45.3154 0.465474 46.2569C0.454705 32.7785 0.463936 19.3 0.460859 5.82155Z" fill="#7DC6DD"/>
<path d="M9.23155 0.547695C22.0116 0.526157 34.7931 0.544618 47.5746 0.538464C49.1531 0.44308 50.6346 1.79077 50.6408 3.38C50.67 5.47077 50.6439 7.56308 50.6531 9.65539C50.65 20.0892 50.6592 30.5215 50.6485 40.9554C36.8469 40.9708 23.0439 40.9523 9.24232 40.9646C9.21617 27.4923 9.23771 14.02 9.23155 0.547695ZM18.35 9.57385C18.3392 17.0492 18.3485 24.5246 18.3454 32C19.9608 32 21.5762 32 23.1916 32C23.1931 27.0492 23.1916 22.0985 23.1916 17.1477C24.5546 22.0831 25.7992 27.0539 27.1239 32C28.8792 32.0031 30.6362 31.9938 32.3916 32.0046C33.6562 27.2692 34.87 22.5185 36.1469 17.7846C36.1623 22.5231 36.1469 27.2615 36.1531 31.9985C37.9346 32.0015 39.7162 32 41.4977 32C41.5069 24.5308 41.4854 17.0615 41.5085 9.59231C39.2192 9.55693 36.9285 9.58616 34.6392 9.57693C33.0823 15.5354 31.5085 21.4892 29.9269 27.44C28.4023 21.4923 26.9377 15.5292 25.4316 9.57693C23.07 9.57385 20.71 9.58 18.35 9.57385Z" fill="#37A5CC"/>
<path d="M18.35 9.57385C20.71 9.58001 23.07 9.57385 25.4315 9.57693C26.9377 15.5292 28.4023 21.4923 29.9269 27.44C31.5085 21.4892 33.0823 15.5354 34.6392 9.57693C36.9285 9.58616 39.2192 9.55693 41.5085 9.59231C41.4854 17.0615 41.5069 24.5308 41.4977 32C39.7162 32 37.9346 32.0015 36.1531 31.9985C36.1469 27.2615 36.1623 22.5231 36.1469 17.7846C34.87 22.5185 33.6562 27.2692 32.3915 32.0046C30.6362 31.9939 28.8792 32.0031 27.1238 32C25.7992 27.0539 24.5546 22.0831 23.1915 17.1477C23.1915 22.0985 23.1931 27.0492 23.1915 32C21.5761 32 19.9608 32 18.3454 32C18.3485 24.5246 18.3392 17.0492 18.35 9.57385Z" fill="white"/>
<path d="M50.6531 9.65539C51.9731 9.65385 53.2931 9.65385 54.6147 9.65539C54.607 23.1031 54.6316 36.5523 54.6024 50H8.25314C7.70237 49.9231 7.1316 49.8385 6.65006 49.54C5.79006 49.04 5.22237 48.0692 5.23006 47.0708C5.22391 45.8462 5.23622 44.62 5.22852 43.3954C6.56083 42.5785 7.91314 41.7908 9.24237 40.9646C23.0439 40.9523 36.847 40.9708 50.6485 40.9554C50.6593 30.5215 50.6501 20.0892 50.6531 9.65539Z" fill="#36697F"/>
</g>
<defs>
<clipPath id="clip0_8_110">
<rect width="54.4586" height="50" fill="white"/>
</clipPath>
</defs>
</svg>
