<svg width="42" height="39" viewBox="0 0 42 39" fill="none" xmlns="http://www.w3.org/2000/svg">
<g clip-path="url(#clip0_154_34)">
<path d="M21 23.5212C23.2091 23.5212 25 21.7209 25 19.5C25 17.2792 23.2091 15.4789 21 15.4789C18.7909 15.4789 17 17.2792 17 19.5C17 21.7209 18.7909 23.5212 21 23.5212Z" fill="white"/>
<path d="M21 28.5476C32.0457 28.5476 41 24.4969 41 19.5C41 14.5031 32.0457 10.4524 21 10.4524C9.9543 10.4524 1 14.5031 1 19.5C1 24.4969 9.9543 28.5476 21 28.5476Z" stroke="white"/>
<path d="M13.2057 24.0239C18.7286 33.6403 26.6953 39.4106 31 36.9122C35.3046 34.4138 34.317 24.5927 28.7942 14.9762C23.2713 5.35977 15.3046 -0.410534 11 2.0879C6.69533 4.58633 7.68288 14.4074 13.2057 24.0239Z" stroke="white"/>
<path d="M13.2057 14.9762C7.68288 24.5927 6.69533 34.4138 11 36.9122C15.3046 39.4106 23.2713 33.6403 28.7942 24.0238C34.317 14.4074 35.3046 4.58632 31 2.08788C26.6953 -0.410547 18.7286 5.35976 13.2057 14.9762Z" stroke="white"/>
</g>
<defs>
<clipPath id="clip0_154_34">
<rect width="42" height="38" fill="white" transform="translate(0 0.5)"/>
</clipPath>
</defs>
</svg>
