<svg viewBox="0 0 512 512" xmlns="http://www.w3.org/2000/svg">
<path d="M188.2 477.2C226.4 488.1 266.3 466 277.2 427.8L282.9 407.8C286.6 394.8 293.3 382.8 302.4 372.8L353.7 316.4C362.6 306.6 361.9 291.4 352.1 282.5C342.3 273.6 327.1 274.3 318.2 284.1L266.9 340.5C252.8 356 242.5 374.5 236.8 394.6L231.1 414.6C227.5 427.3 214.2 434.7 201.4 431.1C188.6 427.5 181.3 414.2 184.9 401.4L190.6 381.4C196.3 361.5 205.3 342.7 217.2 325.9C222.4 318.6 223 309 218.9 301C214.8 293 206.6 288 197.6 288H64C55.2 288 48 280.8 48 272C48 265.2 52.3 259.3 58.4 257C65.8 254.2 71.4 248 73.3 240.3C75.2 232.6 73.2 224.5 68 218.6C65.5 215.8 64 212.1 64 208C64 200.2 69.6 193.7 77 192.3C85.2 190.7 92.1 185 95 177.1C97.9 169.2 96.6 160.4 91.4 153.8C89.3 151.1 88 147.7 88 143.9C88 137.2 92.2 131.3 98.2 129C109.7 124.5 115.9 112.1 112.6 100.2C112.2 98.9 112 97.4 112 95.9C112 87.1 119.2 79.9 128 79.9H225.5C238.1 79.9 250.5 83.6 261 90.6L322.7 131.7C333.7 139.1 348.6 136.1 356 125C363.4 113.9 360.4 99.1 349.3 91.7L287.6 50.6C269.2 38.3 247.6 31.8 225.5 31.8L128 32C93.3 32 65.1 59.6 64 94C49.4 105.7 40 123.7 40 144C40 148.5 40.5 152.8 41.3 157C25.9 168.7 16 187.2 16 208C16 214.5 17 220.8 18.8 226.7C7.19999 238.3 0 254.3 0 272C0 307.3 28.6 336 64 336H156.3C151.6 346.4 147.6 357.2 144.5 368.2L138.8 388.2C127.9 426.4 150 466.3 188.2 477.2ZM480 384C497.7 384 512 369.7 512 352V128C512 110.3 497.7 96 480 96H416C398.3 96 384 110.3 384 128V352C384 369.7 398.3 384 416 384H480Z"/>
</svg>
