<svg width="38" height="39" viewBox="0 0 38 39" fill="none" xmlns="http://www.w3.org/2000/svg">
<g clip-path="url(#clip0_154_40)">
<path d="M34.2891 0.5H3.71094C1.66144 0.5 0 2.16144 0 4.21094V34.7891C0 36.8386 1.66144 38.5 3.71094 38.5H34.2891C36.3386 38.5 38 36.8386 38 34.7891V4.21094C38 2.16144 36.3386 0.5 34.2891 0.5Z" fill="white"/>
<path d="M34.2891 0.5H3.71094C1.66144 0.5 0 2.16144 0 4.21094V34.7891C0 36.8386 1.66144 38.5 3.71094 38.5H34.2891C36.3386 38.5 38 36.8386 38 34.7891V4.21094C38 2.16144 36.3386 0.5 34.2891 0.5Z" fill="white"/>
<path fill-rule="evenodd" clip-rule="evenodd" d="M23.5228 30.7385V34.454C24.1268 34.7636 24.8412 34.9958 25.6659 35.1506C26.4906 35.3054 27.3598 35.3828 28.2736 35.3828C29.1641 35.3828 30.0101 35.2977 30.8115 35.1274C31.613 34.9571 32.3158 34.6765 32.9198 34.2856C33.5238 33.8947 34.002 33.3838 34.3543 32.7529C34.7066 32.1221 34.8828 31.3423 34.8828 30.4134C34.8828 29.74 34.7822 29.1498 34.5808 28.6428C34.3795 28.1358 34.0891 27.6849 33.7096 27.2901C33.3302 26.8954 32.8753 26.5412 32.3448 26.2277C31.8144 25.9142 31.2162 25.6181 30.5502 25.3395C30.0624 25.1382 29.6249 24.9428 29.2377 24.7532C28.8505 24.5635 28.5214 24.37 28.2503 24.1727C27.9793 23.9752 27.7702 23.7662 27.6231 23.5457C27.476 23.325 27.4024 23.0754 27.4024 22.7967C27.4024 22.5413 27.4682 22.311 27.5999 22.1059C27.7315 21.9008 27.9174 21.7247 28.1574 21.5776C28.3975 21.4306 28.6917 21.3164 29.0402 21.2351C29.3887 21.1538 29.7758 21.1132 30.2018 21.1132C30.5115 21.1132 30.8386 21.1365 31.1832 21.1828C31.5278 21.2293 31.8744 21.3009 32.2229 21.3976C32.5713 21.4944 32.9101 21.6163 33.2392 21.7634C33.5683 21.9105 33.8723 22.0807 34.151 22.2743V18.8026C33.5858 18.5859 32.9682 18.4253 32.2984 18.3208C31.6285 18.2163 30.8599 18.1641 29.9927 18.1641C29.1099 18.1641 28.2736 18.2589 27.4837 18.4485C26.6939 18.6382 25.9989 18.9342 25.3987 19.3367C24.7986 19.7393 24.3243 20.2521 23.9758 20.8752C23.6274 21.4983 23.4531 22.2433 23.4531 23.1102C23.4531 24.2171 23.7726 25.1615 24.4114 25.9433C25.0502 26.725 26.0201 27.3869 27.3211 27.9287C27.8322 28.1377 28.3084 28.3428 28.7498 28.5441C29.1912 28.7454 29.5726 28.9544 29.8939 29.1711C30.2153 29.3878 30.4689 29.6239 30.6548 29.8793C30.8406 30.1347 30.9336 30.425 30.9336 30.7502C30.9336 30.9901 30.8754 31.2126 30.7593 31.4177C30.6431 31.6229 30.4669 31.8009 30.2308 31.9518C29.9946 32.1028 29.7003 32.2208 29.348 32.3059C28.9956 32.3911 28.5833 32.4337 28.1109 32.4337C27.3056 32.4337 26.508 32.2924 25.7181 32.0099C24.9283 31.7274 24.1965 31.3036 23.5228 30.7385ZM17.2766 21.5842H22.043V18.5352H8.75781V21.5842H13.5008V35.1602H17.2766V21.5842Z" fill="#FE0000"/>
</g>
<defs>
<clipPath id="clip0_154_40">
<rect width="38" height="38" fill="white" transform="translate(0 0.5)"/>
</clipPath>
</defs>
</svg>
