<svg width="25" height="25" viewBox="0 0 25 25" fill="none" xmlns="http://www.w3.org/2000/svg">
<g clip-path="url(#clip0_116_46)">
<path d="M15.625 0C14.7607 0 14.0625 0.698242 14.0625 1.5625C14.0625 2.42676 14.7607 3.125 15.625 3.125H19.6631L9.83398 12.959C9.22363 13.5693 9.22363 14.5605 9.83398 15.1709C10.4443 15.7813 11.4355 15.7813 12.0459 15.1709L21.875 5.33691V9.375C21.875 10.2393 22.5732 10.9375 23.4375 10.9375C24.3018 10.9375 25 10.2393 25 9.375V1.5625C25 0.698242 24.3018 0 23.4375 0H15.625ZM3.90625 1.5625C1.74805 1.5625 0 3.31055 0 5.46875V21.0938C0 23.252 1.74805 25 3.90625 25H19.5312C21.6895 25 23.4375 23.252 23.4375 21.0938V15.625C23.4375 14.7607 22.7393 14.0625 21.875 14.0625C21.0107 14.0625 20.3125 14.7607 20.3125 15.625V21.0938C20.3125 21.5234 19.9609 21.875 19.5312 21.875H3.90625C3.47656 21.875 3.125 21.5234 3.125 21.0938V5.46875C3.125 5.03906 3.47656 4.6875 3.90625 4.6875H9.375C10.2393 4.6875 10.9375 3.98926 10.9375 3.125C10.9375 2.26074 10.2393 1.5625 9.375 1.5625H3.90625Z" fill="#F7DF1E"/>
</g>
<defs>
<clipPath id="clip0_116_46">
<rect width="25" height="25" fill="white"/>
</clipPath>
</defs>
</svg>
